<svg width="24" height="24" viewBox="0 0 24 24" fill="none" xmlns="http://www.w3.org/2000/svg">
<path fill-rule="evenodd" clip-rule="evenodd" d="M6 1C5.20435 1 4.44129 1.31607 3.87868 1.87868C3.31607 2.44129 3 3.20435 3 4L3 20C3 20.7957 3.31607 21.5587 3.87868 22.1213C4.44129 22.6839 5.20435 23 6 23L18 23C18.7956 23 19.5587 22.6839 20.1213 22.1213C20.6839 21.5587 21 20.7957 21 20L21 9C21 8.73478 20.8946 8.48043 20.7071 8.29289L13.7071 1.29292C13.6114 1.19723 13.4983 1.1229 13.3753 1.07308C13.2572 1.02527 13.1299 1 13 1L6 1ZM12 3L6 3C5.73478 3 5.48043 3.10536 5.29289 3.29289C5.10536 3.48043 5 3.73478 5 4L5 20C5 20.2652 5.10536 20.5196 5.29289 20.7071C5.48043 20.8946 5.73478 21 6 21L18 21C18.2652 21 18.5196 20.8946 18.7071 20.7071C18.8946 20.5196 19 20.2652 19 20L19 10L13 10C12.4477 10 12 9.55232 12 9.00003L12 3ZM17.5858 8.00003L14 4.41424L14 8.00003L17.5858 8.00003Z" fill="#ADB4BC"/>
</svg>
