<svg width="12" height="12" viewBox="0 0 12 12" fill="none" xmlns="http://www.w3.org/2000/svg">
<path fill-rule="evenodd" clip-rule="evenodd" d="M8.5 1C8.5 0.723858 8.27614 0.5 8 0.5C7.72386 0.5 7.5 0.723858 7.5 1V1.5H4.5V1C4.5 0.723858 4.27614 0.5 4 0.5C3.72386 0.5 3.5 0.723858 3.5 1V1.5H2.5C1.67157 1.5 1 2.17157 1 3V10C1 10.8284 1.67157 11.5 2.5 11.5H9.5C10.3284 11.5 11 10.8284 11 10V3C11 2.17157 10.3284 1.5 9.5 1.5H8.5V1ZM10 4.5V3C10 2.72386 9.77614 2.5 9.5 2.5H8.5V3C8.5 3.27614 8.27614 3.5 8 3.5C7.72386 3.5 7.5 3.27614 7.5 3V2.5H4.5V3C4.5 3.27614 4.27614 3.5 4 3.5C3.72386 3.5 3.5 3.27614 3.5 3V2.5H2.5C2.22386 2.5 2 2.72386 2 3V4.5H10ZM2 5.5H10V10C10 10.2761 9.77614 10.5 9.5 10.5H2.5C2.22386 10.5 2 10.2761 2 10V5.5Z" fill="#525252"/>
</svg>
