<svg width="16" height="16" viewBox="0 0 16 16" fill="none" xmlns="http://www.w3.org/2000/svg">
<g clip-path="url(#clip0_267_3264)">
<path d="M7.5286 0.861278C7.78895 0.600928 8.21106 0.600928 8.4714 0.861278L11.1381 3.52794C11.3984 3.78829 11.3984 4.2104 11.1381 4.47075C10.8777 4.7311 10.4556 4.7311 10.1953 4.47075L8.66667 2.94216L8.66667 9.99935C8.66667 10.3675 8.36819 10.666 8 10.666C7.63181 10.666 7.33333 10.3675 7.33333 9.99935L7.33333 2.94216L5.80474 4.47075C5.54439 4.7311 5.12228 4.7311 4.86193 4.47075C4.60158 4.2104 4.60158 3.78829 4.86193 3.52794L7.5286 0.861278Z" fill="#3A3C40"/>
<path d="M2.66667 7.33268C3.03486 7.33268 3.33333 7.63116 3.33333 7.99935V13.3327C3.33333 13.5095 3.40357 13.6791 3.5286 13.8041C3.65362 13.9291 3.82319 13.9993 4 13.9993H12C12.1768 13.9993 12.3464 13.9291 12.4714 13.8041C12.5964 13.6791 12.6667 13.5095 12.6667 13.3327V7.99935C12.6667 7.63116 12.9651 7.33268 13.3333 7.33268C13.7015 7.33268 14 7.63116 14 7.99935V13.3327C14 13.8631 13.7893 14.3718 13.4142 14.7469C13.0391 15.122 12.5304 15.3327 12 15.3327H4C3.46957 15.3327 2.96086 15.122 2.58579 14.7469C2.21071 14.3718 2 13.8631 2 13.3327V7.99935C2 7.63116 2.29848 7.33268 2.66667 7.33268Z" fill="#3A3C40"/>
</g>
<defs>
<clipPath id="clip0_267_3264">
<rect width="16" height="16" fill="white"/>
</clipPath>
</defs>
</svg>
