<svg width="16" height="16" viewBox="0 0 16 16" fill="none" xmlns="http://www.w3.org/2000/svg">
<path d="M6.00033 8.66732C5.63214 8.66732 5.33366 8.96579 5.33366 9.33398C5.33366 9.70217 5.63214 10.0007 6.00033 10.0007H10.0003C10.3685 10.0007 10.667 9.70217 10.667 9.33398C10.667 8.96579 10.3685 8.66732 10.0003 8.66732H6.00033Z" fill="#3A3C40"/>
<path fill-rule="evenodd" clip-rule="evenodd" d="M2.66699 1.33398C2.13656 1.33398 1.62785 1.5447 1.25278 1.91977C0.877706 2.29484 0.666992 2.80355 0.666992 3.33398V12.6673C0.666992 13.1978 0.877706 13.7065 1.25278 14.0815C1.62785 14.4566 2.13656 14.6673 2.66699 14.6673H13.3337C13.8641 14.6673 14.3728 14.4566 14.7479 14.0815C15.1229 13.7065 15.3337 13.1978 15.3337 12.6673V5.33398C15.3337 4.80355 15.1229 4.29484 14.7479 3.91977C14.3728 3.5447 13.8641 3.33398 13.3337 3.33398H7.69045L6.55503 1.63085C6.43138 1.44539 6.22323 1.33398 6.00033 1.33398H2.66699ZM2.19559 2.86258C2.32061 2.73756 2.49018 2.66732 2.66699 2.66732H5.64354L6.77896 4.37045C6.9026 4.55592 7.11076 4.66732 7.33366 4.66732H13.3337C13.5105 4.66732 13.68 4.73756 13.8051 4.86258C13.9301 4.9876 14.0003 5.15717 14.0003 5.33398V12.6673C14.0003 12.8441 13.9301 13.0137 13.8051 13.1387C13.68 13.2637 13.5105 13.334 13.3337 13.334H2.66699C2.49018 13.334 2.32061 13.2637 2.19559 13.1387C2.07056 13.0137 2.00033 12.8441 2.00033 12.6673V3.33398C2.00033 3.15717 2.07056 2.9876 2.19559 2.86258Z" fill="#3A3C40"/>
</svg>
