<svg width="16" height="16" viewBox="0 0 16 16" fill="none" xmlns="http://www.w3.org/2000/svg">
<g clip-path="url(#clip0_267_3257)">
<path d="M5.61206 3.09826C6.06266 1.77954 7.88466 1.7396 8.41891 2.97844L8.46412 3.09901L9.0722 4.87741C9.21156 5.28525 9.43676 5.65847 9.73261 5.97189C10.0285 6.2853 10.3881 6.53162 10.7872 6.69423L10.9507 6.75527L12.729 7.36263C14.0477 7.81326 14.0876 9.63535 12.8496 10.1696L12.729 10.2148L10.9507 10.823C10.5427 10.9622 10.1694 11.1874 9.85587 11.4833C9.54234 11.7791 9.29592 12.1388 9.13324 12.5381L9.0722 12.7008L8.46487 14.48C8.01427 15.7987 6.19227 15.8386 5.65878 14.6005L5.61206 14.48L5.00473 12.7016C4.86546 12.2936 4.64031 11.9202 4.34445 11.6067C4.0486 11.2931 3.68893 11.0467 3.28973 10.884L3.12697 10.823L1.34867 10.2156C0.0292641 9.76497 -0.0106722 7.94287 1.22811 7.40935L1.34867 7.36263L3.12697 6.75527C3.53479 6.6159 3.90799 6.39069 4.22139 6.09483C4.53479 5.79896 4.78109 5.43932 4.94369 5.04017L5.00473 4.87741L5.61206 3.09826ZM7.03846 3.58506L6.43113 5.36345C6.21893 5.98536 5.87373 6.55354 5.41956 7.02843C4.96539 7.50331 4.41318 7.87349 3.80136 8.11317L3.61298 8.18175L1.83469 8.78911L3.61298 9.39648C4.23486 9.60869 4.80301 9.95391 5.27787 10.4081C5.75273 10.8623 6.12289 11.4145 6.36256 12.0264L6.43113 12.2148L7.03846 13.9932L7.6458 12.2148C7.858 11.5929 8.2032 11.0247 8.65737 10.5498C9.11153 10.0749 9.66375 9.70474 10.2756 9.46505L10.4639 9.39723L12.2422 8.78911L10.4639 8.18175C9.84207 7.96954 9.27392 7.62432 8.79906 7.17013C8.3242 6.71593 7.95404 6.16368 7.71437 5.55184L7.64655 5.36345L7.03846 3.58506ZM13.0666 0.5C13.2076 0.5 13.3457 0.539545 13.4653 0.614142C13.5849 0.688739 13.6812 0.795396 13.7432 0.921991L13.7794 1.01016L14.0431 1.78331L14.817 2.04705C14.9583 2.09505 15.0821 2.18391 15.1728 2.30237C15.2636 2.42083 15.3171 2.56355 15.3266 2.71246C15.3361 2.86136 15.3012 3.00974 15.2263 3.13879C15.1514 3.26784 15.0399 3.37176 14.9059 3.43736L14.817 3.47353L14.0439 3.73728L13.7802 4.51118C13.7321 4.65242 13.6432 4.7762 13.5247 4.86685C13.4062 4.9575 13.2634 5.01093 13.1145 5.02037C12.9657 5.02981 12.8173 4.99484 12.6883 4.91989C12.5593 4.84494 12.4555 4.73338 12.3899 4.59934L12.3538 4.51118L12.09 3.73803L11.3162 3.47428C11.1749 3.42629 11.0511 3.33743 10.9603 3.21897C10.8696 3.10051 10.8161 2.95778 10.8066 2.80888C10.7971 2.65997 10.832 2.51159 10.9068 2.38254C10.9817 2.25349 11.0933 2.14958 11.2273 2.08397L11.3162 2.0478L12.0893 1.78406L12.353 1.01016C12.4038 0.861274 12.4999 0.732026 12.6279 0.640537C12.7559 0.549048 12.9093 0.499906 13.0666 0.5Z" fill="#3A3C40"/>
</g>
<defs>
<clipPath id="clip0_267_3257">
<rect width="16" height="16" fill="white"/>
</clipPath>
</defs>
</svg>
