<svg width="16" height="16" viewBox="0 0 16 16" fill="none" xmlns="http://www.w3.org/2000/svg">
<g clip-path="url(#clip0_267_3267)">
<path d="M7.99967 4.66602C7.99967 4.29783 7.7012 3.99935 7.33301 3.99935C6.96482 3.99935 6.66634 4.29783 6.66634 4.66602V7.33268C6.66634 7.70087 6.96482 7.99935 7.33301 7.99935C7.7012 7.99935 7.99967 7.70087 7.99967 7.33268V4.66602Z" fill="#3A3C40"/>
<path d="M11.333 4.66602C11.333 4.29783 11.0345 3.99935 10.6663 3.99935C10.2982 3.99935 9.99967 4.29783 9.99967 4.66602V7.33268C9.99967 7.70087 10.2982 7.99935 10.6663 7.99935C11.0345 7.99935 11.333 7.70087 11.333 7.33268V4.66602Z" fill="#3A3C40"/>
<path fill-rule="evenodd" clip-rule="evenodd" d="M1.99967 0.666016C1.63148 0.666016 1.33301 0.964492 1.33301 1.33268V11.9993C1.33301 12.3675 1.63148 12.666 1.99967 12.666H4.66634V14.666C4.66634 14.9357 4.82877 15.1787 5.07789 15.2819C5.327 15.3851 5.61375 15.3281 5.80441 15.1374L8.27582 12.666H11.333C11.5098 12.666 11.6794 12.5958 11.8044 12.4708L14.4711 9.80409C14.5961 9.67906 14.6663 9.50949 14.6663 9.33268V1.33268C14.6663 0.964492 14.3679 0.666016 13.9997 0.666016H1.99967ZM2.66634 11.3327V1.99935H13.333V9.05654L11.0569 11.3327H7.99967C7.82286 11.3327 7.65329 11.4029 7.52827 11.5279L5.99967 13.0565V11.9993C5.99967 11.6312 5.7012 11.3327 5.33301 11.3327H2.66634Z" fill="#3A3C40"/>
</g>
<defs>
<clipPath id="clip0_267_3267">
<rect width="16" height="16" fill="white"/>
</clipPath>
</defs>
</svg>
