<svg width="32" height="32" viewBox="0 0 32 32" fill="none" xmlns="http://www.w3.org/2000/svg">
<rect width="32" height="32" rx="4" fill="#E4EBF1"/>
<path d="M16.5453 26.3522L16.5333 26.3542L16.4623 26.3892L16.4423 26.3932L16.4283 26.3892L16.3573 26.3532C16.3467 26.3505 16.3387 26.3525 16.3333 26.3592L16.3293 26.3692L16.3123 26.7972L16.3173 26.8172L16.3273 26.8302L16.4313 26.9042L16.4463 26.9082L16.4583 26.9042L16.5623 26.8302L16.5743 26.8142L16.5783 26.7972L16.5613 26.3702C16.5587 26.3595 16.5533 26.3535 16.5453 26.3522ZM16.8093 26.2392L16.7953 26.2412L16.6113 26.3342L16.6013 26.3442L16.5983 26.3552L16.6163 26.7852L16.6213 26.7972L16.6293 26.8052L16.8303 26.8972C16.843 26.9005 16.8527 26.8978 16.8593 26.8892L16.8633 26.8752L16.8293 26.2612C16.826 26.2485 16.8193 26.2412 16.8093 26.2392ZM16.0943 26.2412C16.0899 26.2385 16.0847 26.2376 16.0796 26.2388C16.0746 26.2399 16.0702 26.2429 16.0673 26.2472L16.0613 26.2612L16.0273 26.8752C16.028 26.8872 16.0337 26.8952 16.0443 26.8992L16.0593 26.8972L16.2603 26.8042L16.2703 26.7962L16.2733 26.7852L16.2913 26.3552L16.2883 26.3432L16.2783 26.3332L16.0943 26.2412Z" fill="url(#paint0_linear_331_7967)"/>
<path d="M13.0593 8.54175C13.6573 6.79175 16.0753 6.73875 16.7843 8.38275L16.8443 8.54275L17.6513 10.9028C17.8362 11.444 18.1351 11.9393 18.5277 12.3552C18.9203 12.7711 19.3976 13.098 19.9273 13.3138L20.1443 13.3947L22.5043 14.2008C24.2543 14.7987 24.3073 17.2168 22.6643 17.9257L22.5043 17.9858L20.1443 18.7928C19.6028 18.9776 19.1074 19.2764 18.6913 19.669C18.2752 20.0616 17.9481 20.539 17.7323 21.0688L17.6513 21.2847L16.8453 23.6458C16.2473 25.3958 13.8293 25.4487 13.1213 23.8057L13.0593 23.6458L12.2533 21.2857C12.0684 20.7443 11.7696 20.2489 11.377 19.8328C10.9844 19.4167 10.507 19.0896 9.97725 18.8737L9.76125 18.7928L7.40125 17.9867C5.65025 17.3888 5.59725 14.9707 7.24125 14.2627L7.40125 14.2008L9.76125 13.3947C10.3025 13.2098 10.7978 12.9109 11.2137 12.5183C11.6296 12.1257 11.9565 11.6484 12.1723 11.1187L12.2533 10.9028L13.0593 8.54175ZM14.9523 9.18775L14.1463 11.5478C13.8646 12.3731 13.4065 13.1271 12.8038 13.7572C12.2011 14.3874 11.4682 14.8787 10.6563 15.1967L10.4063 15.2878L8.04625 16.0938L10.4063 16.8997C11.2316 17.1814 11.9856 17.6395 12.6157 18.2422C13.2459 18.8449 13.7372 19.5778 14.0553 20.3897L14.1463 20.6397L14.9523 22.9998L15.7583 20.6397C16.0399 19.8144 16.498 19.0604 17.1007 18.4303C17.7035 17.8001 18.4363 17.3088 19.2483 16.9908L19.4983 16.9008L21.8583 16.0938L19.4983 15.2878C18.6729 15.0061 17.919 14.548 17.2888 13.9453C16.6586 13.3426 16.1673 12.6097 15.8493 11.7978L15.7593 11.5478L14.9523 9.18775ZM22.9523 5.09375C23.1393 5.09375 23.3227 5.14623 23.4814 5.24522C23.6401 5.34421 23.7679 5.48575 23.8503 5.65375L23.8983 5.77075L24.2483 6.79675L25.2753 7.14675C25.4627 7.21045 25.6271 7.32837 25.7475 7.48557C25.8679 7.64277 25.9389 7.83217 25.9515 8.02977C25.9642 8.22737 25.9179 8.42428 25.8185 8.59554C25.7191 8.76679 25.5711 8.90469 25.3933 8.99175L25.2753 9.03975L24.2493 9.38975L23.8993 10.4167C23.8354 10.6042 23.7174 10.7684 23.5602 10.8887C23.4029 11.009 23.2135 11.0799 23.0159 11.0925C22.8183 11.105 22.6214 11.0586 22.4502 10.9591C22.279 10.8597 22.1412 10.7116 22.0543 10.5338L22.0063 10.4167L21.6563 9.39075L20.6293 9.04075C20.4418 8.97705 20.2774 8.85913 20.157 8.70194C20.0366 8.54474 19.9656 8.35533 19.953 8.15773C19.9403 7.96013 19.9866 7.76322 20.086 7.59196C20.1854 7.42071 20.3334 7.28281 20.5113 7.19575L20.6293 7.14775L21.6553 6.79775L22.0053 5.77075C22.0727 5.57318 22.2003 5.40166 22.3701 5.28025C22.5399 5.15884 22.7435 5.09362 22.9523 5.09375Z" fill="url(#paint1_linear_331_7967)"/>
<defs>
<linearGradient id="paint0_linear_331_7967" x1="16.0273" y1="26.5732" x2="16.8633" y2="26.5732" gradientUnits="userSpaceOnUse">
<stop stop-color="#4B85E2"/>
<stop offset="0.370192" stop-color="#68A2FF"/>
<stop offset="0.9999" stop-color="#84EBAD"/>
</linearGradient>
<linearGradient id="paint1_linear_331_7967" x1="6.04688" y1="15.0466" x2="25.9536" y2="15.0466" gradientUnits="userSpaceOnUse">
<stop stop-color="#4B85E2"/>
<stop offset="0.370192" stop-color="#68A2FF"/>
<stop offset="0.9999" stop-color="#84EBAD"/>
</linearGradient>
</defs>
</svg>
