<svg width="32" height="32" viewBox="0 0 32 32" fill="none" xmlns="http://www.w3.org/2000/svg">
<rect width="32" height="32" rx="4" fill="url(#paint0_linear_305_2438)"/>
<path d="M13.0593 8.54175C13.6573 6.79175 16.0753 6.73875 16.7843 8.38275L16.8443 8.54275L17.6513 10.9028C17.8362 11.444 18.1351 11.9393 18.5277 12.3552C18.9203 12.7711 19.3976 13.098 19.9273 13.3138L20.1443 13.3947L22.5043 14.2008C24.2543 14.7987 24.3073 17.2168 22.6643 17.9257L22.5043 17.9858L20.1443 18.7928C19.6028 18.9776 19.1074 19.2764 18.6913 19.669C18.2752 20.0616 17.9481 20.539 17.7323 21.0688L17.6513 21.2847L16.8453 23.6458C16.2473 25.3958 13.8293 25.4487 13.1213 23.8057L13.0593 23.6458L12.2533 21.2857C12.0684 20.7443 11.7696 20.2489 11.377 19.8328C10.9844 19.4167 10.507 19.0896 9.97725 18.8737L9.76125 18.7928L7.40125 17.9867C5.65025 17.3888 5.59725 14.9707 7.24125 14.2627L7.40125 14.2008L9.76125 13.3947C10.3025 13.2098 10.7978 12.9109 11.2137 12.5183C11.6296 12.1257 11.9565 11.6484 12.1723 11.1187L12.2533 10.9028L13.0593 8.54175ZM14.9523 9.18775L14.1463 11.5478C13.8646 12.3731 13.4065 13.1271 12.8038 13.7572C12.2011 14.3874 11.4682 14.8787 10.6563 15.1967L10.4063 15.2878L8.04625 16.0938L10.4063 16.8997C11.2316 17.1814 11.9856 17.6395 12.6157 18.2422C13.2459 18.8449 13.7372 19.5778 14.0553 20.3897L14.1463 20.6397L14.9523 22.9998L15.7583 20.6397C16.0399 19.8144 16.498 19.0604 17.1007 18.4303C17.7035 17.8001 18.4363 17.3088 19.2483 16.9908L19.4983 16.9008L21.8583 16.0938L19.4983 15.2878C18.6729 15.0061 17.919 14.548 17.2888 13.9453C16.6586 13.3426 16.1673 12.6097 15.8493 11.7978L15.7593 11.5478L14.9523 9.18775ZM22.9523 5.09375C23.1393 5.09375 23.3227 5.14623 23.4814 5.24522C23.6401 5.34421 23.7679 5.48575 23.8503 5.65375L23.8983 5.77075L24.2483 6.79675L25.2753 7.14675C25.4627 7.21045 25.6271 7.32837 25.7475 7.48557C25.8679 7.64277 25.9389 7.83217 25.9515 8.02977C25.9642 8.22737 25.9179 8.42428 25.8185 8.59554C25.7191 8.76679 25.5711 8.90469 25.3933 8.99175L25.2753 9.03975L24.2493 9.38975L23.8993 10.4167C23.8354 10.6042 23.7174 10.7684 23.5602 10.8887C23.4029 11.009 23.2135 11.0799 23.0159 11.0925C22.8183 11.105 22.6214 11.0586 22.4502 10.9591C22.279 10.8597 22.1412 10.7116 22.0543 10.5338L22.0063 10.4167L21.6563 9.39075L20.6293 9.04075C20.4418 8.97705 20.2774 8.85913 20.157 8.70194C20.0366 8.54474 19.9656 8.35533 19.953 8.15773C19.9403 7.96013 19.9866 7.76322 20.086 7.59196C20.1854 7.42071 20.3334 7.28281 20.5113 7.19575L20.6293 7.14775L21.6553 6.79775L22.0053 5.77075C22.0727 5.57318 22.2003 5.40166 22.3701 5.28025C22.5399 5.15884 22.7435 5.09362 22.9523 5.09375Z" fill="white"/>
<defs>
<linearGradient id="paint0_linear_305_2438" x1="0" y1="16" x2="32" y2="16" gradientUnits="userSpaceOnUse">
<stop stop-color="#4B85E2"/>
<stop offset="0.370192" stop-color="#68A2FF"/>
<stop offset="0.9999" stop-color="#84EBAD"/>
</linearGradient>
</defs>
</svg>
