<svg width="20" height="20" viewBox="0 0 20 20" fill="none" xmlns="http://www.w3.org/2000/svg">
<rect width="20" height="20" rx="10" fill="white"/>
<path d="M14.8536 5.85355L12.2071 8.5H14C14.2761 8.5 14.5 8.72386 14.5 9C14.5 9.27614 14.2761 9.5 14 9.5H11C10.7239 9.5 10.5 9.27614 10.5 9V6C10.5 5.72386 10.7239 5.5 11 5.5C11.2761 5.5 11.5 5.72386 11.5 6V7.79289L14.1464 5.14645C14.3417 4.95118 14.6583 4.95118 14.8536 5.14645C15.0488 5.34171 15.0488 5.65829 14.8536 5.85355Z" fill="#5F6368"/>
<path d="M6 10.5C5.72386 10.5 5.5 10.7239 5.5 11C5.5 11.2761 5.72386 11.5 6 11.5H7.79289L5.14645 14.1464C4.95118 14.3417 4.95118 14.6583 5.14645 14.8536C5.34171 15.0488 5.65829 15.0488 5.85355 14.8536L8.5 12.2071V14C8.5 14.2761 8.72386 14.5 9 14.5C9.27614 14.5 9.5 14.2761 9.5 14V11C9.5 10.7239 9.27614 10.5 9 10.5H6Z" fill="#5F6368"/>
</svg>
