<svg width="16" height="16" viewBox="0 0 16 16" fill="none" xmlns="http://www.w3.org/2000/svg">
<path fill-rule="evenodd" clip-rule="evenodd" d="M1.33366 1.33398C0.965469 1.33398 0.666992 1.63246 0.666992 2.00065V12.0007C0.666992 12.3688 0.965469 12.6673 1.33366 12.6673H6.00033C6.35395 12.6673 6.69309 12.8078 6.94314 13.0578C7.19318 13.3079 7.33366 13.647 7.33366 14.0007C7.33366 14.3688 7.63214 14.6673 8.00033 14.6673C8.36852 14.6673 8.66699 14.3688 8.66699 14.0007C8.66699 13.647 8.80747 13.3079 9.05752 13.0578C9.30756 12.8078 9.6467 12.6673 10.0003 12.6673H14.667C15.0352 12.6673 15.3337 12.3688 15.3337 12.0007V2.00065C15.3337 1.63246 15.0352 1.33398 14.667 1.33398H10.667C9.78294 1.33398 8.93509 1.68517 8.30997 2.31029C8.19778 2.42248 8.09442 2.54184 8.00033 2.6673C7.90623 2.54184 7.80287 2.42248 7.69068 2.31029C7.06556 1.68517 6.21771 1.33398 5.33366 1.33398H1.33366ZM8.66699 11.6912C9.06893 11.4592 9.52817 11.334 10.0003 11.334H14.0003V2.66732H10.667C10.1366 2.66732 9.62785 2.87803 9.25278 3.2531C8.87771 3.62818 8.66699 4.13688 8.66699 4.66732V11.6912ZM7.33366 11.6912V4.66732C7.33366 4.13688 7.12295 3.62818 6.74787 3.2531C6.3728 2.87803 5.86409 2.66732 5.33366 2.66732H2.00033V11.334H6.00033C6.47248 11.334 6.93172 11.4592 7.33366 11.6912Z" fill="#3A3C40"/>
</svg>
