<svg width="16" height="16" viewBox="0 0 16 16" fill="none" xmlns="http://www.w3.org/2000/svg">
<path d="M3.07733 12.6673C2.77022 12.6673 2.514 12.5647 2.30867 12.3593C2.10333 12.154 2.00044 11.8975 2 11.59V7.82132C2 7.72621 2.03178 7.64687 2.09533 7.58332C2.15889 7.51976 2.23822 7.48798 2.33333 7.48798C2.42844 7.48798 2.50778 7.51976 2.57133 7.58332C2.63489 7.64687 2.66667 7.72621 2.66667 7.82132V11.5907C2.66667 11.7102 2.70511 11.8084 2.782 11.8853C2.85889 11.9622 2.95733 12.0007 3.07733 12.0007H12.9233C13.0429 12.0007 13.1411 11.9622 13.218 11.8853C13.2949 11.8084 13.3333 11.7102 13.3333 11.5907V4.41065C13.3333 4.2911 13.2949 4.19287 13.218 4.11598C13.1411 4.0391 13.0429 4.00065 12.9233 4.00065H7.82C7.72489 4.00065 7.64556 3.96887 7.582 3.90532C7.51844 3.84176 7.48667 3.76243 7.48667 3.66732C7.48667 3.57221 7.51844 3.49287 7.582 3.42932C7.64556 3.36576 7.72489 3.33398 7.82 3.33398H12.9227C13.2293 3.33398 13.4853 3.43687 13.6907 3.64265C13.896 3.84843 13.9991 4.10465 14 4.41132V11.5907C14 11.8973 13.8971 12.1535 13.6913 12.3593C13.4856 12.5651 13.2296 12.6678 12.9233 12.6673H3.07733ZM8.654 7.80998L11.276 10.4313C11.3404 10.4962 11.4169 10.5309 11.5053 10.5353C11.5938 10.5398 11.6744 10.5051 11.7473 10.4313C11.8202 10.3575 11.8569 10.2782 11.8573 10.1933C11.8573 10.1084 11.8207 10.0293 11.7473 9.95598L9.11333 7.33398H10.988C11.0827 7.33398 11.1618 7.30221 11.2253 7.23865C11.2889 7.1751 11.3209 7.09576 11.3213 7.00065C11.3218 6.90554 11.2898 6.82621 11.2253 6.76265C11.1609 6.6991 11.0818 6.66732 10.988 6.66732H8.526C8.37178 6.66732 8.24356 6.71843 8.14133 6.82065C8.03911 6.92287 7.988 7.05132 7.988 7.20598V9.66732C7.988 9.76243 8.01978 9.84176 8.08333 9.90532C8.14689 9.96887 8.22622 10.0007 8.32133 10.0007C8.41644 10.0007 8.49578 9.96887 8.55933 9.90532C8.62289 9.84176 8.65467 9.76243 8.65467 9.66732L8.654 7.80998ZM2.53867 5.89798C2.384 5.89798 2.25556 5.84687 2.15333 5.74465C2.05111 5.64243 2 5.51443 2 5.36065V3.87265C2 3.71798 2.05111 3.58954 2.15333 3.48732C2.25556 3.3851 2.384 3.33398 2.53867 3.33398H5.35867C5.51333 3.33398 5.64178 3.3851 5.744 3.48732C5.84622 3.58954 5.89733 3.71798 5.89733 3.87265V5.35932C5.89733 5.51443 5.84622 5.64287 5.744 5.74465C5.64178 5.84687 5.51333 5.89798 5.35867 5.89798H2.53867Z" fill="white"/>
</svg>
