<svg width="12" height="10" viewBox="0 0 12 10" fill="none" xmlns="http://www.w3.org/2000/svg">
<path d="M1.07733 9.33333C0.770222 9.33333 0.514 9.23067 0.308667 9.02533C0.103333 8.82 0.000444444 8.56356 0 8.256V4.48733C0 4.39222 0.0317777 4.31289 0.0953333 4.24933C0.158889 4.18578 0.238222 4.154 0.333333 4.154C0.428444 4.154 0.507778 4.18578 0.571333 4.24933C0.634889 4.31289 0.666667 4.39222 0.666667 4.48733V8.25667C0.666667 8.37622 0.705111 8.47444 0.782 8.55133C0.858889 8.62822 0.957333 8.66667 1.07733 8.66667H10.9233C11.0429 8.66667 11.1411 8.62822 11.218 8.55133C11.2949 8.47444 11.3333 8.37622 11.3333 8.25667V1.07667C11.3333 0.957111 11.2949 0.858889 11.218 0.782C11.1411 0.705111 11.0429 0.666667 10.9233 0.666667H5.82C5.72489 0.666667 5.64556 0.634889 5.582 0.571333C5.51844 0.507778 5.48667 0.428444 5.48667 0.333333C5.48667 0.238222 5.51844 0.158889 5.582 0.0953334C5.64556 0.0317779 5.72489 0 5.82 0H10.9227C11.2293 0 11.4853 0.102889 11.6907 0.308667C11.896 0.514444 11.9991 0.770667 12 1.07733V8.25667C12 8.56333 11.8971 8.81956 11.6913 9.02533C11.4856 9.23111 11.2296 9.33378 10.9233 9.33333H1.07733ZM6.654 4.476L9.276 7.09733C9.34044 7.16222 9.41689 7.19689 9.50533 7.20133C9.59378 7.20578 9.67445 7.17111 9.74733 7.09733C9.82022 7.02356 9.85689 6.94422 9.85733 6.85933C9.85733 6.77444 9.82067 6.69533 9.74733 6.622L7.11333 4H8.988C9.08267 4 9.16178 3.96822 9.22533 3.90467C9.28889 3.84111 9.32089 3.76178 9.32133 3.66667C9.32178 3.57156 9.28978 3.49222 9.22533 3.42867C9.16089 3.36511 9.08178 3.33333 8.988 3.33333H6.526C6.37178 3.33333 6.24356 3.38444 6.14133 3.48667C6.03911 3.58889 5.988 3.71733 5.988 3.872V6.33333C5.988 6.42844 6.01978 6.50778 6.08333 6.57133C6.14689 6.63489 6.22622 6.66667 6.32133 6.66667C6.41644 6.66667 6.49578 6.63489 6.55933 6.57133C6.62289 6.50778 6.65467 6.42844 6.65467 6.33333L6.654 4.476ZM0.538667 2.564C0.384 2.564 0.255556 2.51289 0.153333 2.41067C0.0511111 2.30844 0 2.18044 0 2.02667V0.538667C0 0.384 0.0511111 0.255556 0.153333 0.153333C0.255556 0.0511111 0.384 0 0.538667 0H3.35867C3.51333 0 3.64178 0.0511111 3.744 0.153333C3.84622 0.255556 3.89733 0.384 3.89733 0.538667V2.02533C3.89733 2.18044 3.84622 2.30889 3.744 2.41067C3.64178 2.51289 3.51333 2.564 3.35867 2.564H0.538667Z" fill="#4981AD"/>
</svg>
