<svg width="16" height="16" viewBox="0 0 16 16" fill="none" xmlns="http://www.w3.org/2000/svg">
<path fill-rule="evenodd" clip-rule="evenodd" d="M4 0.666016C3.46957 0.666016 2.96086 0.876729 2.58579 1.2518C2.21071 1.62687 2 2.13558 2 2.66602V13.3327C2 13.8631 2.21071 14.3718 2.58579 14.7469C2.96086 15.122 3.46957 15.3327 4 15.3327H12C12.5304 15.3327 13.0391 15.122 13.4142 14.7469C13.7893 14.3718 14 13.8631 14 13.3327V5.99935C14 5.82254 13.9298 5.65297 13.8047 5.52794L9.13807 0.861297C9.07427 0.797499 8.99887 0.747947 8.91683 0.714734C8.8381 0.68286 8.75325 0.666016 8.66667 0.666016H4ZM8 1.99935H4C3.82319 1.99935 3.65362 2.06959 3.5286 2.19461C3.40357 2.31964 3.33333 2.4892 3.33333 2.66602V13.3327C3.33333 13.5095 3.40357 13.6791 3.5286 13.8041C3.65362 13.9291 3.82319 13.9993 4 13.9993H12C12.1768 13.9993 12.3464 13.9291 12.4714 13.8041C12.5964 13.6791 12.6667 13.5095 12.6667 13.3327V6.66604H8.66667C8.29848 6.66604 8 6.36756 8 5.99937V1.99935ZM11.7239 5.3327L9.33333 2.94218V5.3327H11.7239Z" fill="#373737"/>
</svg>
