<svg width="20" height="20" viewBox="0 0 20 20" fill="none" xmlns="http://www.w3.org/2000/svg">
<rect width="20" height="20" rx="10" fill="white"/>
<path d="M11.5 5C11.2239 5 11 5.22386 11 5.5C11 5.77614 11.2239 6 11.5 6H13.2929L10.6464 8.64645C10.4512 8.84171 10.4512 9.15829 10.6464 9.35355C10.8417 9.54882 11.1583 9.54882 11.3536 9.35355L14 6.70711V8.5C14 8.77614 14.2239 9 14.5 9C14.7761 9 15 8.77614 15 8.5V5.5C15 5.22386 14.7761 5 14.5 5H11.5Z" fill="#5F6368"/>
<path d="M6 11.5C6 11.2239 5.77614 11 5.5 11C5.22386 11 5 11.2239 5 11.5V14.5C5 14.7761 5.22386 15 5.5 15H8.5C8.77614 15 9 14.7761 9 14.5C9 14.2239 8.77614 14 8.5 14H6.70711L9.35355 11.3536C9.54882 11.1583 9.54882 10.8417 9.35355 10.6464C9.15829 10.4512 8.84171 10.4512 8.64645 10.6464L6 13.2929V11.5Z" fill="#5F6368"/>
</svg>
