<svg width="16" height="16" viewBox="0 0 16 16" fill="none" xmlns="http://www.w3.org/2000/svg">
<g clip-path="url(#clip0_267_3121)">
<path fill-rule="evenodd" clip-rule="evenodd" d="M8.40897 0.806447C8.16823 0.619205 7.83112 0.619205 7.59038 0.806447L1.59038 5.47311C1.42799 5.59942 1.33301 5.79362 1.33301 5.99935V13.3327C1.33301 13.8631 1.54372 14.3718 1.91879 14.7469C2.29387 15.122 2.80257 15.3327 3.33301 15.3327H12.6663C13.1968 15.3327 13.7055 15.122 14.0806 14.7469C14.4556 14.3718 14.6663 13.8631 14.6663 13.3327V5.99935C14.6663 5.79362 14.5714 5.59942 14.409 5.47311L8.40897 0.806447ZM10.6663 13.9993H12.6663C12.8432 13.9993 13.0127 13.9291 13.1377 13.8041C13.2628 13.6791 13.333 13.5095 13.333 13.3327V6.32541L7.99967 2.17726L2.66634 6.32541V13.3327C2.66634 13.5095 2.73658 13.6791 2.8616 13.8041C2.98663 13.9291 3.1562 13.9993 3.33301 13.9993H5.33301V7.99935C5.33301 7.63116 5.63148 7.33268 5.99967 7.33268H9.99967C10.3679 7.33268 10.6663 7.63116 10.6663 7.99935V13.9993ZM6.66634 13.9993V8.66602H9.33301V13.9993H6.66634Z" fill="#3A3C40"/>
</g>
<defs>
<clipPath id="clip0_267_3121">
<rect width="16" height="16" fill="white"/>
</clipPath>
</defs>
</svg>
