<svg width="20" height="20" viewBox="0 0 20 20" fill="none" xmlns="http://www.w3.org/2000/svg">
<path fill-rule="evenodd" clip-rule="evenodd" d="M16.6673 0.732422C15.9775 0.732422 15.3159 1.00647 14.8281 1.49427L6.9114 9.41093C6.8046 9.51773 6.72883 9.65155 6.6922 9.79808L5.85887 13.1314C5.78787 13.4154 5.87108 13.7158 6.07806 13.9228C6.28505 14.1298 6.58545 14.213 6.86943 14.142L10.2028 13.3086C10.3493 13.272 10.4831 13.1962 10.5899 13.0894L18.5066 5.17278C18.9944 4.68498 19.2684 4.02338 19.2684 3.33352C19.2684 2.64367 18.9944 1.98207 18.5066 1.49427C18.0188 1.00647 17.3572 0.732422 16.6673 0.732422ZM16.0066 2.67278C16.1818 2.49754 16.4195 2.39909 16.6673 2.39909C16.9151 2.39909 17.1528 2.49754 17.3281 2.67278C17.5033 2.84802 17.6018 3.0857 17.6018 3.33352C17.6018 3.58135 17.5033 3.81903 17.3281 3.99427L9.57461 11.7477L7.81262 12.1882L8.25312 10.4262L16.0066 2.67278Z" fill="#2D3648"/>
<path d="M3.33398 2.5002C2.67094 2.5002 2.03506 2.7636 1.56622 3.23244C1.09738 3.70128 0.833984 4.33716 0.833984 5.0002V16.6669C0.833984 17.3299 1.09738 17.9658 1.56622 18.4346C2.03506 18.9035 2.67094 19.1669 3.33398 19.1669H15.0007C15.6637 19.1669 16.2996 18.9035 16.7684 18.4346C17.2373 17.9658 17.5007 17.3299 17.5007 16.6669V10.8335C17.5007 10.3733 17.1276 10.0002 16.6673 10.0002C16.2071 10.0002 15.834 10.3733 15.834 10.8335V16.6669C15.834 16.8879 15.7462 17.0998 15.5899 17.2561C15.4336 17.4124 15.2217 17.5002 15.0007 17.5002H3.33398C3.11297 17.5002 2.90101 17.4124 2.74473 17.2561C2.58845 17.0998 2.50065 16.8879 2.50065 16.6669V5.0002C2.50065 4.77919 2.58845 4.56723 2.74473 4.41095C2.90101 4.25467 3.11297 4.16687 3.33398 4.16687H9.16732C9.62755 4.16687 10.0007 3.79377 10.0007 3.33354C10.0007 2.8733 9.62755 2.5002 9.16732 2.5002H3.33398Z" fill="#2D3648"/>
</svg>
