<svg width="16" height="16" viewBox="0 0 16 16" fill="none" xmlns="http://www.w3.org/2000/svg">
<path d="M11.3333 3.33398C10.9651 3.33398 10.6667 3.63246 10.6667 4.00065C10.6667 4.36884 10.9651 4.66732 11.3333 4.66732H13.7239L9 9.39118L6.13807 6.52925C5.87772 6.2689 5.45561 6.2689 5.19526 6.52925L0.195262 11.5292C-0.0650874 11.7896 -0.0650874 12.2117 0.195262 12.4721C0.455612 12.7324 0.877722 12.7324 1.13807 12.4721L5.66667 7.94346L8.5286 10.8054C8.78895 11.0657 9.21106 11.0657 9.47141 10.8054L14.6667 5.61013V8.00065C14.6667 8.36884 14.9651 8.66732 15.3333 8.66732C15.7015 8.66732 16 8.36884 16 8.00065V4.00065C16 3.63246 15.7015 3.33398 15.3333 3.33398H11.3333Z" fill="#3A3C40"/>
</svg>
