<svg width="25" height="25" viewBox="0 0 25 25" fill="none" xmlns="http://www.w3.org/2000/svg">
<path d="M2.02344 6.07037C2.02344 5.51158 2.47643 5.05859 3.03522 5.05859H21.2472C21.806 5.05859 22.259 5.51158 22.259 6.07037C22.259 6.62916 21.806 7.08215 21.2472 7.08215H3.03522C2.47643 7.08215 2.02344 6.62916 2.02344 6.07037Z" fill="#232323"/>
<path d="M2.02344 12.141C2.02344 11.5823 2.47643 11.1293 3.03522 11.1293H21.2472C21.806 11.1293 22.259 11.5823 22.259 12.141C22.259 12.6998 21.806 13.1528 21.2472 13.1528H3.03522C2.47643 13.1528 2.02344 12.6998 2.02344 12.141Z" fill="#232323"/>
<path d="M3.03522 17.1999C2.47643 17.1999 2.02344 17.6529 2.02344 18.2117C2.02344 18.7705 2.47643 19.2235 3.03522 19.2235H21.2472C21.806 19.2235 22.259 18.7705 22.259 18.2117C22.259 17.6529 21.806 17.1999 21.2472 17.1999H3.03522Z" fill="#232323"/>
</svg>
