<svg width="16" height="16" viewBox="0 0 16 16" fill="none" xmlns="http://www.w3.org/2000/svg">
<g clip-path="url(#clip0_267_3254)">
<path d="M5.33333 7.99935C4.96514 7.99935 4.66667 8.29783 4.66667 8.66602C4.66667 9.03421 4.96514 9.33268 5.33333 9.33268H10.6667C11.0349 9.33268 11.3333 9.03421 11.3333 8.66602C11.3333 8.29783 11.0349 7.99935 10.6667 7.99935H5.33333Z" fill="#3A3C40"/>
<path d="M4.66667 11.3327C4.66667 10.9645 4.96514 10.666 5.33333 10.666H10.6667C11.0349 10.666 11.3333 10.9645 11.3333 11.3327C11.3333 11.7009 11.0349 11.9993 10.6667 11.9993H5.33333C4.96514 11.9993 4.66667 11.7009 4.66667 11.3327Z" fill="#3A3C40"/>
<path d="M5.33333 5.33268C4.96514 5.33268 4.66667 5.63116 4.66667 5.99935C4.66667 6.36754 4.96514 6.66602 5.33333 6.66602H6.66667C7.03486 6.66602 7.33333 6.36754 7.33333 5.99935C7.33333 5.63116 7.03486 5.33268 6.66667 5.33268H5.33333Z" fill="#3A3C40"/>
<path fill-rule="evenodd" clip-rule="evenodd" d="M2.58579 1.2518C2.96086 0.876729 3.46957 0.666016 4 0.666016H9.33333C9.51014 0.666016 9.67971 0.736253 9.80474 0.861278L13.8047 4.86128C13.9298 4.9863 14 5.15587 14 5.33268V13.3327C14 13.8631 13.7893 14.3718 13.4142 14.7469C13.0391 15.122 12.5304 15.3327 12 15.3327H4C3.46957 15.3327 2.96086 15.122 2.58579 14.7469C2.21071 14.3718 2 13.8631 2 13.3327V2.66602C2 2.13558 2.21071 1.62687 2.58579 1.2518ZM4 1.99935C3.82319 1.99935 3.65362 2.06959 3.5286 2.19461C3.40357 2.31964 3.33333 2.4892 3.33333 2.66602V13.3327C3.33333 13.5095 3.40357 13.6791 3.5286 13.8041C3.65362 13.9291 3.82319 13.9993 4 13.9993H12C12.1768 13.9993 12.3464 13.9291 12.4714 13.8041C12.5964 13.6791 12.6667 13.5095 12.6667 13.3327V5.99935H9.33333C8.96514 5.99935 8.66667 5.70087 8.66667 5.33268V1.99935H4ZM10 2.94216L11.7239 4.66602H10V2.94216Z" fill="#3A3C40"/>
</g>
<defs>
<clipPath id="clip0_267_3254">
<rect width="16" height="16" fill="white"/>
</clipPath>
</defs>
</svg>
