<svg width="20" height="20" viewBox="0 0 20 20" fill="none" xmlns="http://www.w3.org/2000/svg">
<path d="M6.78424 4.1633C8.05003 3.46536 9.50837 3.19772 10.9395 3.40071C12.3706 3.60371 13.697 4.26634 14.7188 5.28876C14.7248 5.29472 14.7308 5.30059 14.7369 5.30637L17.0278 7.49967H14.1667C13.7064 7.49967 13.3333 7.87277 13.3333 8.33301C13.3333 8.79324 13.7064 9.16634 14.1667 9.16634H19.1667C19.6269 9.16634 20 8.79324 20 8.33301V3.33301C20 2.87277 19.6269 2.49967 19.1667 2.49967C18.7064 2.49967 18.3333 2.87277 18.3333 3.33301V6.44231L15.8885 4.10147C14.6125 2.82864 12.9582 2.0037 11.1736 1.75057C9.38465 1.49682 7.56172 1.83137 5.97948 2.7038C4.39725 3.57623 3.14142 4.93928 2.40125 6.58753C1.66108 8.23579 1.47666 10.08 1.87579 11.8422C2.27492 13.6043 3.23597 15.1891 4.61411 16.3575C5.99226 17.526 7.71284 18.2149 9.51658 18.3204C11.3203 18.4259 13.1095 17.9424 14.6145 16.9426C16.1195 15.9428 17.2588 14.4809 17.8606 12.7773C18.014 12.3433 17.7864 11.8673 17.3525 11.714C16.9185 11.5606 16.4425 11.7881 16.2892 12.2221C15.8077 13.585 14.8962 14.7545 13.6922 15.5543C12.4882 16.3542 11.0569 16.741 9.61392 16.6566C8.17093 16.5722 6.79446 16.0211 5.69194 15.0863C4.58943 14.1515 3.82059 12.8837 3.50129 11.474C3.18198 10.0642 3.32952 8.5889 3.92165 7.27029C4.51379 5.95168 5.51845 4.86125 6.78424 4.1633Z" fill="#434343"/>
</svg>
