<svg width="32" height="32" viewBox="0 0 32 32" fill="none" xmlns="http://www.w3.org/2000/svg">
<path d="M24.7792 7.8279L26.7392 5.67165C26.9138 5.4748 27.0038 5.21706 26.9897 4.9543C26.9755 4.69154 26.8584 4.44494 26.6637 4.26797C26.4689 4.09099 26.2123 3.99791 25.9494 4.00889C25.6865 4.01988 25.4385 4.13405 25.2592 4.32665L23.2992 6.48165C20.9127 4.6488 17.9245 3.77997 14.9273 4.04753C11.9301 4.3151 9.14301 5.6995 7.11892 7.92609C5.09484 10.1527 3.98166 13.0588 4.00023 16.0678C4.0188 19.0768 5.16777 21.969 7.21919 24.1704L5.25919 26.3266C5.16903 26.4235 5.09898 26.5373 5.05311 26.6614C5.00725 26.7856 4.98648 26.9175 4.992 27.0498C4.99752 27.182 5.02923 27.3118 5.08529 27.4317C5.14135 27.5515 5.22065 27.6591 5.31858 27.7481C5.41651 27.8371 5.53113 27.9057 5.6558 27.9501C5.78047 27.9945 5.91271 28.0137 6.04485 28.0066C6.17699 27.9995 6.3064 27.9662 6.42559 27.9087C6.54478 27.8512 6.65137 27.7706 6.73919 27.6716L8.69919 25.5166C11.0857 27.3495 14.0739 28.2183 17.0711 27.9508C20.0683 27.6832 22.8554 26.2988 24.8795 24.0722C26.9035 21.8456 28.0167 18.9395 27.9982 15.9305C27.9796 12.9215 26.8306 10.0293 24.7792 7.8279ZM5.99919 15.9991C6.0003 14.1478 6.51531 12.3332 7.48686 10.7573C8.45841 9.18138 9.84835 7.90611 11.5019 7.07352C13.1554 6.24092 15.0076 5.88369 16.8522 6.0416C18.6967 6.19951 20.4612 6.86637 21.9492 7.9679L8.57419 22.6841C6.91594 20.8526 5.99811 18.4698 5.99919 15.9991ZM15.9992 25.9991C13.8555 26.0014 11.7685 25.3108 10.0492 24.0304L23.4242 9.31415C24.7182 10.7497 25.5682 12.5296 25.8712 14.4384C26.1743 16.3472 25.9174 18.3028 25.1316 20.0686C24.3458 21.8343 23.0649 23.3343 21.4441 24.3869C19.8232 25.4395 17.9319 25.9995 15.9992 25.9991Z" fill="white"/>
</svg>
